# xmcd
#
# Track frame offsets:
#	150
#	13144
#	31270
#	45899
#	64051
#	79744
#	92120
#	109259
#	126466
#	142708
#	170238
#
# Disc length: 2653 seconds
#
# Revision: 0
# Processed by: cddbd v1.5.2PL0 Copyright (c) Steve Scherf et al.
# Submitted via: audiograbber 1.83.01
#
DISCID=8e0a5b0b
DTITLE=All Star Karaoke - ASK1012
DYEAR=2006
DGENRE=Country
TTITLE0=Ashley Monroe - Satisfied
TTITLE1=Carrie Underwood - Don't Forget to Remember Me
TTITLE2=Danielle Peck - Findin' a Good Man
TTITLE3=Diamond Rio - God Only Cries
TTITLE4=Jo Dee Messina - Not Going Down
TTITLE5=Joe Nichols - Size Matters (Someday)
TTITLE6=Josh Turner - Would You Go With Me
TTITLE7=Miranda Lambert - New Strings
TTITLE8=Rascal Flatts - What Hurts the Most
TTITLE9=The Wreckers - Leave the Pieces
TTITLE10=No Artist - Data Track
EXTD=
EXTT0=
EXTT1=
EXTT2=
EXTT3=
EXTT4=
EXTT5=
EXTT6=
EXTT7=
EXTT8=
EXTT9=
EXTT10=Data Track to install player add on for Karaoke on the PC
PLAYORDER=
